<?xml version="1.0" encoding="utf-8"?>
<svg viewBox="-5.6 -20.8 54.4 65.6" fill="none" xmlns="http://www.w3.org/2000/svg">
  <path d="M 25.162 18 L 12.912 18 C 12.1 18 11.321 18.321 10.747 18.893 C 10.173 19.465 9.85 20.241 9.85 21.05 C 9.85 21.859 10.173 22.635 10.747 23.207 C 11.321 23.779 12.1 24.1 12.912 24.1 L 25.162 24.1 C 25.975 24.1 26.754 23.779 27.328 23.207 C 27.902 22.635 28.225 21.859 28.225 21.05 C 28.225 20.241 27.902 19.465 27.328 18.893 C 26.754 18.321 25.975 18 25.162 18 Z M 37.412 -12.5 L 33.799 -12.5 C 33.167 -14.28 31.998 -15.821 30.452 -16.914 C 28.905 -18.006 27.058 -18.595 25.162 -18.6 L 19.038 -18.6 C 17.142 -18.595 15.295 -18.006 13.748 -16.914 C 12.202 -15.821 11.033 -14.28 10.401 -12.5 L 6.788 -12.5 C 4.351 -12.5 2.014 -11.536 0.291 -9.82 C -1.432 -8.104 -2.4 -5.777 -2.4 -3.35 L -2.4 33.25 C -2.4 35.677 -1.432 38.004 0.291 39.72 C 2.014 41.436 4.351 42.4 6.788 42.4 L 37.412 42.4 C 39.849 42.4 42.186 41.436 43.909 39.72 C 45.632 38.004 46.6 35.677 46.6 33.25 L 46.6 -3.35 C 46.6 -5.777 45.632 -8.104 43.909 -9.82 C 42.186 -11.536 39.849 -12.5 37.412 -12.5 Z M 15.975 -9.45 C 15.975 -10.259 16.298 -11.035 16.872 -11.607 C 17.446 -12.179 18.225 -12.5 19.038 -12.5 L 25.162 -12.5 C 25.975 -12.5 26.754 -12.179 27.328 -11.607 C 27.902 -11.035 28.225 -10.259 28.225 -9.45 L 28.225 -6.4 L 15.975 -6.4 L 15.975 -9.45 Z M 40.475 33.25 C 40.475 34.059 40.152 34.835 39.578 35.407 C 39.004 35.979 38.225 36.3 37.412 36.3 L 6.788 36.3 C 5.975 36.3 5.196 35.979 4.622 35.407 C 4.048 34.835 3.725 34.059 3.725 33.25 L 3.725 -3.35 C 3.725 -4.159 4.048 -4.935 4.622 -5.507 C 5.196 -6.079 5.975 -6.4 6.788 -6.4 L 9.85 -6.4 L 9.85 -3.35 C 9.85 -2.541 10.173 -1.765 10.747 -1.193 C 11.321 -0.621 12.1 -0.3 12.912 -0.3 L 31.288 -0.3 C 32.1 -0.3 32.879 -0.621 33.453 -1.193 C 34.027 -1.765 34.35 -2.541 34.35 -3.35 L 34.35 -6.4 L 37.412 -6.4 C 38.225 -6.4 39.004 -6.079 39.578 -5.507 C 40.152 -4.935 40.475 -4.159 40.475 -3.35 L 40.475 33.25 Z M 31.288 5.8 L 12.912 5.8 C 12.1 5.8 11.321 6.121 10.747 6.693 C 10.173 7.265 9.85 8.041 9.85 8.85 C 9.85 9.659 10.173 10.435 10.747 11.007 C 11.321 11.579 12.1 11.9 12.912 11.9 L 31.288 11.9 C 32.1 11.9 32.879 11.579 33.453 11.007 C 34.027 10.435 34.35 9.659 34.35 8.85 C 34.35 8.041 34.027 7.265 33.453 6.693 C 32.879 6.121 32.1 5.8 31.288 5.8 Z" style="fill: rgb(255, 255, 255);"/>
</svg>