<?xml version="1.0" encoding="utf-8"?>
<svg viewBox="-3.2 -24 67.2 68" fill="none" xmlns="http://www.w3.org/2000/svg">
  <path d="M 43.847 -7.684 L 32.046 -19.59 C 31.85 -19.785 31.617 -19.939 31.361 -20.044 C 31.104 -20.149 30.83 -20.202 30.553 -20.2 C 30.001 -20.198 29.472 -19.979 29.081 -19.59 L -0.788 10.174 C -1.18 10.568 -1.4 11.101 -1.4 11.657 C -1.4 12.212 -1.18 12.746 -0.788 13.14 L 11.117 25.045 C 11.314 25.24 11.547 25.394 11.803 25.499 C 12.059 25.604 12.334 25.657 12.611 25.655 C 13.162 25.653 13.691 25.434 14.083 25.045 L 20.036 19.092 L 37.894 1.234 L 43.847 -4.719 C 44.239 -5.113 44.459 -5.646 44.459 -6.202 C 44.459 -6.757 44.239 -7.29 43.847 -7.684 Z M 36.401 -3.225 L 34.907 -4.719 C 34.513 -5.11 33.98 -5.33 33.424 -5.33 C 32.869 -5.33 32.335 -5.11 31.941 -4.719 C 31.744 -4.523 31.588 -4.29 31.481 -4.034 C 31.374 -3.778 31.319 -3.503 31.319 -3.225 C 31.319 -2.947 31.374 -2.673 31.481 -2.416 C 31.588 -2.16 31.744 -1.927 31.941 -1.732 L 33.435 -0.238 L 30.448 2.728 L 25.989 -1.732 C 25.586 -2.076 25.069 -2.256 24.539 -2.236 C 24.01 -2.215 23.508 -1.996 23.133 -1.621 C 22.758 -1.247 22.539 -0.745 22.518 -0.215 C 22.498 0.314 22.678 0.832 23.023 1.234 L 27.482 5.693 L 24.495 8.68 L 23.023 7.187 C 22.627 6.791 22.089 6.568 21.529 6.568 C 20.969 6.568 20.432 6.791 20.036 7.187 C 19.64 7.583 19.417 8.12 19.417 8.68 C 19.417 9.241 19.64 9.778 20.036 10.174 L 21.529 11.646 L 18.563 14.633 L 14.083 10.174 C 13.689 9.782 13.156 9.562 12.6 9.562 C 12.044 9.562 11.511 9.782 11.117 10.174 C 10.725 10.568 10.506 11.101 10.506 11.657 C 10.506 12.212 10.725 12.746 11.117 13.14 L 15.576 17.599 L 12.611 20.586 L 3.671 11.646 L 30.448 -15.131 L 39.388 -6.191 L 36.401 -3.225 Z" fill="#FF3343"/>
  <path d="M 21.738 40.8 L 59.6 40.8 C 60.158 40.8 60.693 40.578 61.087 40.184 C 61.482 39.789 61.704 39.254 61.704 38.697 L 61.704 0.834 C 61.704 0.277 61.482 -0.258 61.087 -0.653 C 60.693 -1.047 60.158 -1.269 59.6 -1.269 L 46.979 -1.269 C 46.422 -1.269 45.886 -1.047 45.492 -0.653 C 45.098 -0.258 44.876 0.277 44.876 0.834 L 44.876 23.972 L 21.738 23.972 C 21.18 23.972 20.645 24.194 20.251 24.588 C 19.856 24.983 19.635 25.518 19.635 26.076 L 19.635 38.697 C 19.635 39.254 19.856 39.789 20.251 40.184 C 20.645 40.578 21.18 40.8 21.738 40.8 Z M 23.841 28.179 L 28.048 28.179 L 28.048 30.283 C 28.048 30.841 28.27 31.376 28.664 31.77 C 29.059 32.165 29.594 32.386 30.152 32.386 C 30.71 32.386 31.245 32.165 31.639 31.77 C 32.034 31.376 32.255 30.841 32.255 30.283 L 32.255 28.179 L 36.462 28.179 L 36.462 30.283 C 36.462 30.841 36.684 31.376 37.078 31.77 C 37.473 32.165 38.008 32.386 38.566 32.386 C 39.123 32.386 39.658 32.165 40.053 31.77 C 40.447 31.376 40.669 30.841 40.669 30.283 L 40.669 28.179 L 44.876 28.179 L 44.876 30.283 C 44.876 30.841 45.098 31.376 45.492 31.77 C 45.886 32.165 46.422 32.386 46.979 32.386 C 47.537 32.386 48.072 32.165 48.467 31.77 C 48.861 31.376 49.083 30.841 49.083 30.283 L 49.083 28.179 L 51.186 28.179 C 51.744 28.179 52.279 27.958 52.674 27.563 C 53.068 27.169 53.29 26.634 53.29 26.076 C 53.29 25.518 53.068 24.983 52.674 24.588 C 52.279 24.194 51.744 23.972 51.186 23.972 L 49.083 23.972 L 49.083 19.766 L 51.186 19.766 C 51.744 19.766 52.279 19.544 52.674 19.149 C 53.068 18.755 53.29 18.22 53.29 17.662 C 53.29 17.104 53.068 16.569 52.674 16.175 C 52.279 15.78 51.744 15.559 51.186 15.559 L 49.083 15.559 L 49.083 11.352 L 51.186 11.352 C 51.744 11.352 52.279 11.13 52.674 10.736 C 53.068 10.341 53.29 9.806 53.29 9.248 C 53.29 8.69 53.068 8.155 52.674 7.761 C 52.279 7.366 51.744 7.145 51.186 7.145 L 49.083 7.145 L 49.083 2.938 L 57.497 2.938 L 57.497 36.593 L 23.841 36.593 L 23.841 28.179 Z" fill="#FF3343"/>
</svg>