<?xml version="1.0" encoding="utf-8"?>
<svg viewBox="-4 -19.2 73.6 77.6" fill="none" xmlns="http://www.w3.org/2000/svg">
  <path d="M 48.33 25.951 C 48.196 26.095 48.077 26.253 47.975 26.422 C 47.858 26.572 47.768 26.741 47.709 26.922 C 47.619 27.098 47.559 27.287 47.532 27.482 C 47.412 28.046 47.474 28.633 47.709 29.16 C 47.842 29.525 48.053 29.857 48.329 30.132 C 48.605 30.407 48.938 30.618 49.305 30.75 C 49.655 30.915 50.04 30.996 50.427 30.986 C 50.811 30.99 51.193 30.92 51.55 30.779 C 51.903 30.609 52.231 30.391 52.525 30.132 C 52.799 29.857 53.015 29.53 53.163 29.172 C 53.31 28.813 53.384 28.429 53.382 28.041 C 53.392 27.655 53.311 27.272 53.145 26.922 C 52.996 26.565 52.786 26.237 52.525 25.951 C 52.249 25.678 51.922 25.462 51.562 25.315 C 51.202 25.169 50.816 25.094 50.427 25.097 C 50.041 25.101 49.66 25.181 49.305 25.332 C 48.942 25.472 48.611 25.683 48.33 25.951 Z M 36.157 38.199 C 36.04 38.35 35.95 38.519 35.891 38.7 C 35.78 38.872 35.7 39.061 35.655 39.259 C 35.566 39.637 35.566 40.03 35.655 40.408 L 35.832 40.938 L 36.098 41.468 L 36.452 41.909 C 37.033 42.461 37.806 42.768 38.609 42.763 C 38.998 42.766 39.383 42.691 39.743 42.545 C 40.103 42.398 40.431 42.182 40.707 41.909 C 40.968 41.623 41.178 41.295 41.327 40.938 C 41.511 40.492 41.582 40.007 41.534 39.528 C 41.487 39.048 41.321 38.587 41.053 38.186 C 40.784 37.784 40.421 37.455 39.995 37.226 C 39.569 36.998 39.093 36.877 38.609 36.874 C 37.827 36.885 37.078 37.19 36.511 37.728 L 36.157 38.199 Z M 48.33 37.728 C 48.061 38.008 47.85 38.339 47.709 38.7 C 47.461 39.233 47.379 39.828 47.473 40.408 L 47.65 40.938 C 47.715 41.125 47.804 41.304 47.916 41.468 C 48.025 41.622 48.143 41.77 48.27 41.909 C 48.551 42.178 48.883 42.388 49.245 42.528 C 49.599 42.684 49.982 42.764 50.368 42.764 C 50.755 42.764 51.137 42.684 51.491 42.528 C 51.849 42.379 52.179 42.17 52.466 41.909 C 52.75 41.639 52.978 41.315 53.135 40.956 C 53.293 40.597 53.376 40.211 53.382 39.819 C 53.392 39.433 53.311 39.049 53.145 38.7 C 52.996 38.343 52.786 38.015 52.525 37.728 C 52.238 37.468 51.908 37.259 51.55 37.11 C 51.196 36.954 50.814 36.874 50.427 36.874 C 50.041 36.874 49.658 36.954 49.305 37.11 C 48.942 37.25 48.611 37.46 48.33 37.728 Z M 35.891 29.16 C 36.032 29.521 36.242 29.852 36.511 30.132 C 37.078 30.67 37.827 30.975 38.609 30.986 C 39.093 30.983 39.569 30.862 39.995 30.634 C 40.421 30.405 40.784 30.076 41.053 29.674 C 41.321 29.273 41.487 28.812 41.534 28.333 C 41.582 27.853 41.511 27.368 41.327 26.922 C 41.178 26.565 40.968 26.237 40.707 25.951 C 40.431 25.678 40.103 25.462 39.743 25.315 C 39.383 25.169 38.998 25.094 38.609 25.097 C 37.827 25.108 37.078 25.413 36.511 25.951 C 36.101 26.365 35.824 26.89 35.713 27.462 C 35.603 28.033 35.665 28.624 35.891 29.16 Z M 48.33 14.173 C 48.069 14.459 47.859 14.788 47.709 15.144 C 47.483 15.681 47.421 16.272 47.531 16.843 C 47.642 17.414 47.92 17.94 48.33 18.354 C 48.611 18.622 48.942 18.832 49.305 18.972 C 49.658 19.128 50.041 19.209 50.427 19.209 C 50.814 19.209 51.196 19.128 51.55 18.972 C 51.908 18.823 52.238 18.614 52.525 18.354 C 52.799 18.079 53.015 17.753 53.163 17.394 C 53.31 17.035 53.384 16.651 53.382 16.263 C 53.392 15.877 53.311 15.494 53.145 15.144 C 52.996 14.788 52.786 14.459 52.525 14.173 C 52.11 13.764 51.582 13.488 51.009 13.377 C 50.436 13.267 49.843 13.329 49.305 13.554 C 48.942 13.695 48.611 13.905 48.33 14.173 Z M 12.018 16.263 L 12.018 39.819 C 12.018 40.6 12.329 41.349 12.883 41.901 C 13.438 42.453 14.189 42.763 14.973 42.763 L 26.791 42.763 C 27.575 42.763 28.326 42.453 28.88 41.901 C 29.434 41.349 29.745 40.6 29.745 39.819 L 29.745 16.263 C 29.745 15.482 29.434 14.734 28.88 14.181 C 28.326 13.629 27.575 13.319 26.791 13.319 L 14.973 13.319 C 14.189 13.319 13.438 13.629 12.883 14.181 C 12.329 14.734 12.018 15.482 12.018 16.263 Z M 23.836 19.208 L 23.836 36.874 L 17.927 36.874 L 17.927 19.208 L 23.836 19.208 Z M 0.2 10.374 L 0.2 45.708 C 0.2 48.051 1.134 50.297 2.796 51.954 C 4.458 53.611 6.713 54.541 9.064 54.541 L 56.336 54.541 C 58.687 54.541 60.942 53.611 62.604 51.954 C 64.266 50.297 65.2 48.051 65.2 45.708 L 65.2 10.374 C 65.2 8.032 64.266 5.785 62.604 4.128 C 60.942 2.472 58.687 1.541 56.336 1.541 L 9.064 1.541 C 6.713 1.541 4.458 2.472 2.796 4.128 C 1.134 5.785 0.2 8.032 0.2 10.374 Z M 56.336 7.43 C 57.12 7.43 57.871 7.74 58.426 8.292 C 58.98 8.845 59.291 9.594 59.291 10.374 L 59.291 45.708 C 59.291 46.489 58.98 47.238 58.426 47.79 C 57.871 48.342 57.12 48.652 56.336 48.652 L 9.064 48.652 C 8.28 48.652 7.529 48.342 6.975 47.79 C 6.42 47.238 6.109 46.489 6.109 45.708 L 6.109 10.374 C 6.109 9.594 6.42 8.845 6.975 8.292 C 7.529 7.74 8.28 7.43 9.064 7.43 L 56.336 7.43 Z M 36.157 14.644 C 36.04 14.794 35.95 14.964 35.891 15.144 C 35.801 15.32 35.741 15.509 35.714 15.704 C 35.625 16.082 35.625 16.475 35.714 16.852 L 35.891 17.382 L 36.157 17.912 L 36.511 18.354 C 37.078 18.892 37.827 19.197 38.609 19.208 C 39.093 19.205 39.569 19.085 39.995 18.856 C 40.421 18.627 40.784 18.298 41.053 17.897 C 41.321 17.495 41.487 17.035 41.534 16.555 C 41.582 16.075 41.511 15.591 41.327 15.144 C 41.178 14.788 40.968 14.459 40.707 14.173 C 40.431 13.9 40.103 13.684 39.743 13.538 C 39.383 13.391 38.998 13.317 38.609 13.319 C 37.827 13.33 37.078 13.635 36.511 14.173 L 36.157 14.644 Z" fill="#FF3343"/>
  <path d="M 12.292 -15.396 C 12.135 -15.236 12.011 -15.047 11.927 -14.839 C 11.843 -14.632 11.801 -14.41 11.803 -14.186 L 11.942 -3.981 C 11.945 -3.757 11.993 -3.536 12.083 -3.331 C 12.173 -3.125 12.302 -2.94 12.463 -2.785 C 12.623 -2.627 12.812 -2.503 13.02 -2.419 C 13.227 -2.335 13.449 -2.293 13.673 -2.295 L 20.484 -2.388 L 46.79 -2.745 C 47.014 -2.748 47.235 -2.797 47.44 -2.886 C 47.645 -2.976 47.831 -3.105 47.986 -3.266 L 53.019 -8.438 C 53.334 -8.761 53.508 -9.196 53.502 -9.648 C 53.495 -10.099 53.31 -10.53 52.987 -10.844 L 47.815 -15.877 C 47.654 -16.053 47.457 -16.192 47.238 -16.287 C 47.019 -16.381 46.783 -16.429 46.544 -16.426 L 20.312 -15.998 L 13.548 -15.978 C 13.322 -15.969 13.099 -15.921 12.888 -15.837 C 12.782 -15.751 12.686 -15.653 12.603 -15.544 C 12.542 -15.493 12.487 -15.436 12.437 -15.374 L 12.292 -15.396 Z M 45.941 -12.951 L 49.393 -9.592 L 46.034 -6.14 L 22.135 -5.816 L 22.043 -12.627 L 45.941 -12.951 Z M 18.649 -12.581 L 18.741 -5.77 L 15.336 -5.736 L 15.244 -12.523 L 18.649 -12.581 Z" fill="#FF3343"/>
</svg>